<svg xmlns="http://www.w3.org/2000/svg" xmlns:v="https://svgstorm.com"
viewBox = "0 0 240 240"
width="240"
height="240">
<g fill="None" fill-opacity="0.0" stroke="#000000" stroke-opacity="0.00" stroke-width="0.3"><path d="
M 0.00 17.00 
C 1.97 9.16 9.25 1.98 17.00 0.00
L 0.00 0.00
L 0.00 17.00 Z"/>
</g>
<g fill="None" fill-opacity="0.0" stroke="#8A3FB2" stroke-opacity="1.00" stroke-width="0.3"><path d="
M 0.00 17.00 
L 0.00 115.00
C 10.93 115.74 22.09 114.01 33.00 115.00
C 32.75 113.10 33.74 112.19 34.00 111.00
C 35.27 73.66 72.94 36.15 110.00 34.00
C 111.43 33.69 112.91 32.75 115.00 33.00
C 114.01 22.09 115.74 10.93 115.00 0.00
L 17.00 0.00
C 9.25 1.98 1.97 9.16 0.00 17.00 Z"/>
</g>
<g fill="None" fill-opacity="0.0" stroke="#7800A8" stroke-opacity="1.00" stroke-width="0.3"><path d="
M 115.00 33.00 
C 115.49 33.06 116.00 33.00 116.00 33.00
C 116.00 22.00 116.00 11.00 116.00 0.00
L 115.00 0.00
C 115.74 10.93 114.01 22.09 115.00 33.00 Z"/>
</g>
<g fill="None" fill-opacity="0.0" stroke="#DFD1E9" stroke-opacity="1.00" stroke-width="0.3"><path d="
M 116.00 33.00 
C 116.00 33.50 116.00 34.00 116.00 34.00
C 119.42 30.71 116.03 22.91 117.00 18.00 C 117.97 13.09 116.27 5.18 117.00 0.00
L 116.00 0.00
C 116.00 11.00 116.00 22.00 116.00 33.00 Z"/>
</g>
<g fill="None" fill-opacity="0.0" stroke="#FBFAF9" stroke-opacity="1.00" stroke-width="0.3"><path d="
M 116.00 34.00 
C 114.13 34.39 111.91 33.89 110.00 34.00
C 72.94 36.15 35.27 73.66 34.00 111.00
C 33.95 112.43 34.46 114.66 34.00 116.00
C 30.71 119.42 22.91 116.03 18.00 117.00 C 13.09 117.97 5.18 116.27 0.00 117.00
L 0.00 124.00
C 11.33 124.00 22.67 124.00 34.00 124.00
C 34.39 166.63 73.26 205.77 116.00 206.00
C 116.00 217.33 116.00 228.67 116.00 240.00
L 124.00 240.00
C 124.00 228.67 124.00 217.33 124.00 206.00
C 166.74 205.70 205.58 166.68 206.00 124.00
C 217.33 124.00 228.67 124.00 240.00 124.00
L 240.00 116.00
C 228.67 116.00 217.33 116.00 206.00 116.00
C 205.61 73.27 166.73 34.40 124.00 34.00
C 124.00 22.67 124.00 11.33 124.00 0.00
L 117.00 0.00
C 116.27 5.18 117.97 13.09 117.00 18.00 C 116.03 22.91 119.42 30.71 116.00 34.00
M 131.00 41.00 
C 189.04 48.02 218.99 121.53 183.25 167.25 C 147.51 212.96 74.93 209.02 48.69 154.31 C 22.46 99.59 68.41 33.43 131.00 41.00 Z"/>
</g>
<g fill="None" fill-opacity="0.0" stroke="#4285F3" stroke-opacity="1.00" stroke-width="0.3"><path d="
M 240.00 116.00 
L 240.00 17.00
C 238.03 9.16 230.75 1.98 223.00 0.00
L 124.00 0.00
C 124.00 11.33 124.00 22.67 124.00 34.00
C 166.73 34.40 205.61 73.27 206.00 116.00
C 217.33 116.00 228.67 116.00 240.00 116.00 Z"/>
</g>
<g fill="None" fill-opacity="0.0" stroke="#000000" stroke-opacity="0.00" stroke-width="0.3"><path d="
M 240.00 17.00 
L 240.00 0.00
L 223.00 0.00
C 230.75 1.98 238.03 9.16 240.00 17.00 Z"/>
</g>
<g fill="None" fill-opacity="0.0" stroke="#9D70BC" stroke-opacity="1.00" stroke-width="0.3"><path d="
M 110.00 34.00 
C 111.91 33.89 114.13 34.39 116.00 34.00
C 116.00 34.00 116.00 33.50 116.00 33.00
C 116.00 33.00 115.49 33.06 115.00 33.00
C 112.91 32.75 111.43 33.69 110.00 34.00 Z"/>
</g>
<g fill="None" fill-opacity="0.0" stroke="#FABC11" stroke-opacity="1.00" stroke-width="0.3"><path d="
M 131.00 41.00 
C 68.41 33.43 22.46 99.59 48.69 154.31 C 74.93 209.02 147.51 212.96 183.25 167.25 C 218.99 121.53 189.04 48.02 131.00 41.00
M 143.00 78.00 
C 143.14 78.35 145.69 77.72 146.00 78.00
C 146.00 82.00 146.00 86.00 146.00 90.00
C 133.33 90.00 120.67 90.00 108.00 90.00
C 108.00 95.00 108.00 100.00 108.00 105.00
C 124.35 105.45 133.95 105.25 145.00 118.00
C 146.16 119.34 147.47 120.05 148.00 122.00
C 152.27 128.81 154.92 137.07 153.22 145.22 C 151.52 153.37 149.64 159.92 142.25 165.25 C 134.86 170.58 127.65 171.06 118.00 171.00 C 108.35 170.94 99.04 170.38 94.00 164.00
C 92.69 163.50 91.59 162.57 90.00 163.00
C 90.00 159.00 90.00 155.00 90.00 151.00
C 108.28 164.48 148.96 153.04 135.00 126.00
C 126.81 115.20 108.12 120.11 98.00 124.00
C 98.00 122.00 98.00 120.00 98.00 118.00
C 96.77 118.09 96.10 118.50 95.00 119.00
C 95.00 103.67 95.00 88.33 95.00 73.00
C 110.67 73.00 126.33 73.00 142.00 73.00
C 143.47 74.08 142.95 76.24 143.00 78.00 Z"/>
</g>
<g fill="None" fill-opacity="0.0" stroke="#FEFDFC" stroke-opacity="1.00" stroke-width="0.3"><path d="
M 98.00 118.00 
C 104.43 117.51 112.84 113.03 120.00 115.00 C 127.16 116.97 131.61 119.52 135.00 126.00
C 148.96 153.04 108.28 164.48 90.00 151.00
C 90.00 155.00 90.00 159.00 90.00 163.00
C 91.59 162.57 92.69 163.50 94.00 164.00
C 108.02 169.31 123.64 168.15 137.23 161.23 C 150.82 154.31 150.39 135.79 148.00 123.00
C 146.53 121.71 146.11 119.66 145.00 118.00
C 133.95 105.25 124.35 105.45 108.00 105.00
C 106.88 104.97 105.43 106.86 104.00 106.00
C 104.00 99.00 104.00 92.00 104.00 85.00
C 116.67 85.00 129.33 85.00 142.00 85.00
C 142.00 81.00 142.00 77.00 142.00 73.00
C 126.33 73.00 110.67 73.00 95.00 73.00
C 95.00 88.33 95.00 103.67 95.00 119.00
C 96.10 118.50 96.77 118.09 98.00 118.00 Z"/>
</g>
<g fill="None" fill-opacity="0.0" stroke="#F6E5C4" stroke-opacity="1.00" stroke-width="0.3"><path d="
M 142.00 85.00 
C 143.69 83.82 143.05 79.98 143.00 78.00
C 142.95 76.24 143.47 74.08 142.00 73.00
C 142.00 77.00 142.00 81.00 142.00 85.00 Z"/>
</g>
<g fill="None" fill-opacity="0.0" stroke="#D9A631" stroke-opacity="1.00" stroke-width="0.3"><path d="
M 142.00 85.00 
C 129.33 85.00 116.67 85.00 104.00 85.00
C 104.00 92.00 104.00 99.00 104.00 106.00
C 105.43 106.86 106.88 104.97 108.00 105.00
C 108.00 100.00 108.00 95.00 108.00 90.00
C 120.67 90.00 133.33 90.00 146.00 90.00
C 146.00 86.00 146.00 82.00 146.00 78.00
C 145.69 77.72 143.14 78.35 143.00 78.00
C 143.05 79.98 143.69 83.82 142.00 85.00 Z"/>
</g>
<g fill="None" fill-opacity="0.0" stroke="#9F74BD" stroke-opacity="1.00" stroke-width="0.3"><path d="
M 33.00 115.00 
C 33.06 115.49 33.00 116.00 33.00 116.00
C 33.50 116.00 34.00 116.00 34.00 116.00
C 34.46 114.66 33.95 112.43 34.00 111.00
C 33.74 112.19 32.75 113.10 33.00 115.00 Z"/>
</g>
<g fill="None" fill-opacity="0.0" stroke="#7800A8" stroke-opacity="1.00" stroke-width="0.3"><path d="
M 0.00 116.00 
C 11.00 116.00 22.00 116.00 33.00 116.00
C 33.00 116.00 33.06 115.49 33.00 115.00
C 22.09 114.01 10.93 115.74 0.00 115.00
L 0.00 116.00 Z"/>
</g>
<g fill="None" fill-opacity="0.0" stroke="#DBA529" stroke-opacity="1.00" stroke-width="0.3"><path d="
M 98.00 118.00 
C 98.00 120.00 98.00 122.00 98.00 124.00
C 108.12 120.11 126.81 115.20 135.00 126.00
C 131.61 119.52 127.16 116.97 120.00 115.00 C 112.84 113.03 104.43 117.51 98.00 118.00 Z"/>
</g>
<g fill="None" fill-opacity="0.0" stroke="#DFD1E9" stroke-opacity="1.00" stroke-width="0.3"><path d="
M 0.00 117.00 
C 5.18 116.27 13.09 117.97 18.00 117.00 C 22.91 116.03 30.71 119.42 34.00 116.00
C 34.00 116.00 33.50 116.00 33.00 116.00
C 22.00 116.00 11.00 116.00 0.00 116.00
L 0.00 117.00 Z"/>
</g>
<g fill="None" fill-opacity="0.0" stroke="#EFD098" stroke-opacity="1.00" stroke-width="0.3"><path d="
M 148.00 123.00 
C 147.91 122.52 148.00 122.00 148.00 122.00
C 147.47 120.05 146.16 119.34 145.00 118.00
C 146.11 119.66 146.53 121.71 148.00 123.00 Z"/>
</g>
<g fill="None" fill-opacity="0.0" stroke="#DAA31A" stroke-opacity="1.00" stroke-width="0.3"><path d="
M 148.00 123.00 
C 150.39 135.79 150.82 154.31 137.23 161.23 C 123.64 168.15 108.02 169.31 94.00 164.00
C 99.04 170.38 108.35 170.94 118.00 171.00 C 127.65 171.06 134.86 170.58 142.25 165.25 C 149.64 159.92 151.52 153.37 153.22 145.22 C 154.92 137.07 152.27 128.81 148.00 122.00
C 148.00 122.00 147.91 122.52 148.00 123.00 Z"/>
</g>
<g fill="None" fill-opacity="0.0" stroke="#EA4335" stroke-opacity="1.00" stroke-width="0.3"><path d="
M 0.00 223.00 
C 1.97 230.84 9.25 238.02 17.00 240.00
L 116.00 240.00
C 116.00 228.67 116.00 217.33 116.00 206.00
C 73.26 205.77 34.39 166.63 34.00 124.00
C 22.67 124.00 11.33 124.00 0.00 124.00
L 0.00 223.00 Z"/>
</g>
<g fill="None" fill-opacity="0.0" stroke="#34A853" stroke-opacity="1.00" stroke-width="0.3"><path d="
M 124.00 240.00 
L 223.00 240.00
C 230.84 238.03 238.02 230.75 240.00 223.00
L 240.00 124.00
C 228.67 124.00 217.33 124.00 206.00 124.00
C 205.58 166.68 166.74 205.70 124.00 206.00
C 124.00 217.33 124.00 228.67 124.00 240.00 Z"/>
</g>
<g fill="None" fill-opacity="0.0" stroke="#000000" stroke-opacity="0.00" stroke-width="0.3"><path d="
M 0.00 240.00 
L 17.00 240.00
C 9.25 238.02 1.97 230.84 0.00 223.00
L 0.00 240.00 Z"/>
</g>
<g fill="None" fill-opacity="0.0" stroke="#000000" stroke-opacity="0.00" stroke-width="0.3"><path d="
M 223.00 240.00 
L 240.00 240.00
L 240.00 223.00
C 238.02 230.75 230.84 238.03 223.00 240.00 Z"/>
</g>
<g fill="#000000" fill-opacity="0.00" stroke="None">
<path d="
M 0.00 17.00 
C 1.97 9.16 9.25 1.98 17.00 0.00
L 0.00 0.00
L 0.00 17.00 Z"/>
</g>
<g fill="#8A3FB2" fill-opacity="1.00" stroke="None">
<path d="
M 0.00 17.00 
L 0.00 115.00
C 10.93 115.74 22.09 114.01 33.00 115.00
C 32.75 113.10 33.74 112.19 34.00 111.00
C 35.27 73.66 72.94 36.15 110.00 34.00
C 111.43 33.69 112.91 32.75 115.00 33.00
C 114.01 22.09 115.74 10.93 115.00 0.00
L 17.00 0.00
C 9.25 1.98 1.97 9.16 0.00 17.00 Z"/>
</g>
<g fill="#7800A8" fill-opacity="1.00" stroke="None">
<path d="
M 115.00 33.00 
C 115.49 33.06 116.00 33.00 116.00 33.00
C 116.00 22.00 116.00 11.00 116.00 0.00
L 115.00 0.00
C 115.74 10.93 114.01 22.09 115.00 33.00 Z"/>
</g>
<g fill="#DFD1E9" fill-opacity="1.00" stroke="None">
<path d="
M 116.00 33.00 
C 116.00 33.50 116.00 34.00 116.00 34.00
C 119.42 30.71 116.03 22.91 117.00 18.00 C 117.97 13.09 116.27 5.18 117.00 0.00
L 116.00 0.00
C 116.00 11.00 116.00 22.00 116.00 33.00 Z"/>
</g>
<g fill="#FBFAF9" fill-opacity="1.00" stroke="None">
<path d="
M 116.00 34.00 
C 114.13 34.39 111.91 33.89 110.00 34.00
C 72.94 36.15 35.27 73.66 34.00 111.00
C 33.95 112.43 34.46 114.66 34.00 116.00
C 30.71 119.42 22.91 116.03 18.00 117.00 C 13.09 117.97 5.18 116.27 0.00 117.00
L 0.00 124.00
C 11.33 124.00 22.67 124.00 34.00 124.00
C 34.39 166.63 73.26 205.77 116.00 206.00
C 116.00 217.33 116.00 228.67 116.00 240.00
L 124.00 240.00
C 124.00 228.67 124.00 217.33 124.00 206.00
C 166.74 205.70 205.58 166.68 206.00 124.00
C 217.33 124.00 228.67 124.00 240.00 124.00
L 240.00 116.00
C 228.67 116.00 217.33 116.00 206.00 116.00
C 205.61 73.27 166.73 34.40 124.00 34.00
C 124.00 22.67 124.00 11.33 124.00 0.00
L 117.00 0.00
C 116.27 5.18 117.97 13.09 117.00 18.00 C 116.03 22.91 119.42 30.71 116.00 34.00
M 131.00 41.00 
C 189.04 48.02 218.99 121.53 183.25 167.25 C 147.51 212.96 74.93 209.02 48.69 154.31 C 22.46 99.59 68.41 33.43 131.00 41.00 Z"/>
</g>
<g fill="#4285F3" fill-opacity="1.00" stroke="None">
<path d="
M 240.00 116.00 
L 240.00 17.00
C 238.03 9.16 230.75 1.98 223.00 0.00
L 124.00 0.00
C 124.00 11.33 124.00 22.67 124.00 34.00
C 166.73 34.40 205.61 73.27 206.00 116.00
C 217.33 116.00 228.67 116.00 240.00 116.00 Z"/>
</g>
<g fill="#000000" fill-opacity="0.00" stroke="None">
<path d="
M 240.00 17.00 
L 240.00 0.00
L 223.00 0.00
C 230.75 1.98 238.03 9.16 240.00 17.00 Z"/>
</g>
<g fill="#9D70BC" fill-opacity="1.00" stroke="None">
<path d="
M 110.00 34.00 
C 111.91 33.89 114.13 34.39 116.00 34.00
C 116.00 34.00 116.00 33.50 116.00 33.00
C 116.00 33.00 115.49 33.06 115.00 33.00
C 112.91 32.75 111.43 33.69 110.00 34.00 Z"/>
</g>
<g fill="#FABC11" fill-opacity="1.00" stroke="None">
<path d="
M 131.00 41.00 
C 68.41 33.43 22.46 99.59 48.69 154.31 C 74.93 209.02 147.51 212.96 183.25 167.25 C 218.99 121.53 189.04 48.02 131.00 41.00
M 143.00 78.00 
C 143.14 78.35 145.69 77.72 146.00 78.00
C 146.00 82.00 146.00 86.00 146.00 90.00
C 133.33 90.00 120.67 90.00 108.00 90.00
C 108.00 95.00 108.00 100.00 108.00 105.00
C 124.35 105.45 133.95 105.25 145.00 118.00
C 146.16 119.34 147.47 120.05 148.00 122.00
C 152.27 128.81 154.92 137.07 153.22 145.22 C 151.52 153.37 149.64 159.92 142.25 165.25 C 134.86 170.58 127.65 171.06 118.00 171.00 C 108.35 170.94 99.04 170.38 94.00 164.00
C 92.69 163.50 91.59 162.57 90.00 163.00
C 90.00 159.00 90.00 155.00 90.00 151.00
C 108.28 164.48 148.96 153.04 135.00 126.00
C 126.81 115.20 108.12 120.11 98.00 124.00
C 98.00 122.00 98.00 120.00 98.00 118.00
C 96.77 118.09 96.10 118.50 95.00 119.00
C 95.00 103.67 95.00 88.33 95.00 73.00
C 110.67 73.00 126.33 73.00 142.00 73.00
C 143.47 74.08 142.95 76.24 143.00 78.00 Z"/>
</g>
<g fill="#FEFDFC" fill-opacity="1.00" stroke="None">
<path d="
M 98.00 118.00 
C 104.43 117.51 112.84 113.03 120.00 115.00 C 127.16 116.97 131.61 119.52 135.00 126.00
C 148.96 153.04 108.28 164.48 90.00 151.00
C 90.00 155.00 90.00 159.00 90.00 163.00
C 91.59 162.57 92.69 163.50 94.00 164.00
C 108.02 169.31 123.64 168.15 137.23 161.23 C 150.82 154.31 150.39 135.79 148.00 123.00
C 146.53 121.71 146.11 119.66 145.00 118.00
C 133.95 105.25 124.35 105.45 108.00 105.00
C 106.88 104.97 105.43 106.86 104.00 106.00
C 104.00 99.00 104.00 92.00 104.00 85.00
C 116.67 85.00 129.33 85.00 142.00 85.00
C 142.00 81.00 142.00 77.00 142.00 73.00
C 126.33 73.00 110.67 73.00 95.00 73.00
C 95.00 88.33 95.00 103.67 95.00 119.00
C 96.10 118.50 96.77 118.09 98.00 118.00 Z"/>
</g>
<g fill="#F6E5C4" fill-opacity="1.00" stroke="None">
<path d="
M 142.00 85.00 
C 143.69 83.82 143.05 79.98 143.00 78.00
C 142.95 76.24 143.47 74.08 142.00 73.00
C 142.00 77.00 142.00 81.00 142.00 85.00 Z"/>
</g>
<g fill="#D9A631" fill-opacity="1.00" stroke="None">
<path d="
M 142.00 85.00 
C 129.33 85.00 116.67 85.00 104.00 85.00
C 104.00 92.00 104.00 99.00 104.00 106.00
C 105.43 106.86 106.88 104.97 108.00 105.00
C 108.00 100.00 108.00 95.00 108.00 90.00
C 120.67 90.00 133.33 90.00 146.00 90.00
C 146.00 86.00 146.00 82.00 146.00 78.00
C 145.69 77.72 143.14 78.35 143.00 78.00
C 143.05 79.98 143.69 83.82 142.00 85.00 Z"/>
</g>
<g fill="#9F74BD" fill-opacity="1.00" stroke="None">
<path d="
M 33.00 115.00 
C 33.06 115.49 33.00 116.00 33.00 116.00
C 33.50 116.00 34.00 116.00 34.00 116.00
C 34.46 114.66 33.95 112.43 34.00 111.00
C 33.74 112.19 32.75 113.10 33.00 115.00 Z"/>
</g>
<g fill="#7800A8" fill-opacity="1.00" stroke="None">
<path d="
M 0.00 116.00 
C 11.00 116.00 22.00 116.00 33.00 116.00
C 33.00 116.00 33.06 115.49 33.00 115.00
C 22.09 114.01 10.93 115.74 0.00 115.00
L 0.00 116.00 Z"/>
</g>
<g fill="#DBA529" fill-opacity="1.00" stroke="None">
<path d="
M 98.00 118.00 
C 98.00 120.00 98.00 122.00 98.00 124.00
C 108.12 120.11 126.81 115.20 135.00 126.00
C 131.61 119.52 127.16 116.97 120.00 115.00 C 112.84 113.03 104.43 117.51 98.00 118.00 Z"/>
</g>
<g fill="#DFD1E9" fill-opacity="1.00" stroke="None">
<path d="
M 0.00 117.00 
C 5.18 116.27 13.09 117.97 18.00 117.00 C 22.91 116.03 30.71 119.42 34.00 116.00
C 34.00 116.00 33.50 116.00 33.00 116.00
C 22.00 116.00 11.00 116.00 0.00 116.00
L 0.00 117.00 Z"/>
</g>
<g fill="#EFD098" fill-opacity="1.00" stroke="None">
<path d="
M 148.00 123.00 
C 147.91 122.52 148.00 122.00 148.00 122.00
C 147.47 120.05 146.16 119.34 145.00 118.00
C 146.11 119.66 146.53 121.71 148.00 123.00 Z"/>
</g>
<g fill="#DAA31A" fill-opacity="1.00" stroke="None">
<path d="
M 148.00 123.00 
C 150.39 135.79 150.82 154.31 137.23 161.23 C 123.64 168.15 108.02 169.31 94.00 164.00
C 99.04 170.38 108.35 170.94 118.00 171.00 C 127.65 171.06 134.86 170.58 142.25 165.25 C 149.64 159.92 151.52 153.37 153.22 145.22 C 154.92 137.07 152.27 128.81 148.00 122.00
C 148.00 122.00 147.91 122.52 148.00 123.00 Z"/>
</g>
<g fill="#EA4335" fill-opacity="1.00" stroke="None">
<path d="
M 0.00 223.00 
C 1.97 230.84 9.25 238.02 17.00 240.00
L 116.00 240.00
C 116.00 228.67 116.00 217.33 116.00 206.00
C 73.26 205.77 34.39 166.63 34.00 124.00
C 22.67 124.00 11.33 124.00 0.00 124.00
L 0.00 223.00 Z"/>
</g>
<g fill="#34A853" fill-opacity="1.00" stroke="None">
<path d="
M 124.00 240.00 
L 223.00 240.00
C 230.84 238.03 238.02 230.75 240.00 223.00
L 240.00 124.00
C 228.67 124.00 217.33 124.00 206.00 124.00
C 205.58 166.68 166.74 205.70 124.00 206.00
C 124.00 217.33 124.00 228.67 124.00 240.00 Z"/>
</g>
<g fill="#000000" fill-opacity="0.00" stroke="None">
<path d="
M 0.00 240.00 
L 17.00 240.00
C 9.25 238.02 1.97 230.84 0.00 223.00
L 0.00 240.00 Z"/>
</g>
<g fill="#000000" fill-opacity="0.00" stroke="None">
<path d="
M 223.00 240.00 
L 240.00 240.00
L 240.00 223.00
C 238.02 230.75 230.84 238.03 223.00 240.00 Z"/>
</g>
</svg>